<svg xmlns="http://www.w3.org/2000/svg" width="900" height="520" viewBox="0 0 900 520">
<rect width="100%" height="100%" fill="white"/><text x="450" y="30" text-anchor="middle" font-family="Arial" font-size="22" font-weight="600">Baseline vs Physics-Verified Optimized Power Curve</text>
<line x1="85" y1="55" x2="85" y2="450" stroke="#333"/><line x1="85" y1="450" x2="875" y2="450" stroke="#333"/>
<g stroke="#ddd"><line x1="85" y1="55" x2="85" y2="450"/><line x1="243" y1="55" x2="243" y2="450"/><line x1="401" y1="55" x2="401" y2="450"/><line x1="559" y1="55" x2="559" y2="450"/><line x1="717" y1="55" x2="717" y2="450"/><line x1="875" y1="55" x2="875" y2="450"/><line x1="85" y1="450" x2="875" y2="450"/><line x1="85" y1="371" x2="875" y2="371"/><line x1="85" y1="292" x2="875" y2="292"/><line x1="85" y1="213" x2="875" y2="213"/><line x1="85" y1="134" x2="875" y2="134"/><line x1="85" y1="55" x2="875" y2="55"/></g>
<polyline points="85,422.8 122.6,402.2 160.2,371 197.9,330.4 235.5,280.7 273.1,217 310.7,137.4 348.3,82.3 386,82.3 423.6,82.3 461.2,82.3 498.8,82.3 536.4,82.3 574,82.3 611.7,82.3 649.3,82.3 686.9,82.3 724.5,82.3 762.1,82.3 799.8,82.3 837.4,82.3 875,82.2" fill="none" stroke="#1f77b4" stroke-width="3"/><polyline points="85,420.9 122.6,400.4 160.2,369.2 197.9,331.3 235.5,282.2 273.1,219 310.7,140.2 348.3,82.3 386,82.2 423.6,82.3 461.2,82.2 498.8,82.3 536.4,82.3 574,82.3 611.7,82.3 649.3,82.3 686.9,82.3 724.5,82.3 762.1,82.2 799.8,82.3 837.4,82.3 875,82.2" fill="none" stroke="#ff7f0e" stroke-width="3"/>
<text x="450" y="502" text-anchor="middle" font-family="Arial" font-size="16">Wind speed [m/s]</text><text x="22" y="260" transform="rotate(-90 22 260)" text-anchor="middle" font-family="Arial" font-size="16">Aerodynamic power [MW]</text><rect x="585" y="65" width="285" height="80" fill="white" stroke="#bbb"/><line x1="600" y1="90" x2="635" y2="90" stroke="#1f77b4" stroke-width="3"/><text x="645" y="95" font-family="Arial" font-size="13">IEA baseline</text><line x1="600" y1="115" x2="635" y2="115" stroke="#ff7f0e" stroke-width="3"/><text x="645" y="120" font-family="Arial" font-size="13">Physics-verified optimized design</text></svg>